<svg xmlns="http://www.w3.org/2000/svg" viewBox="0 0 64 80" x="0px" y="0px"><path d="M43,2H21a3,3,0,0,0-3,3V41a3,3,0,0,0,3,3h6V42H21a1,1,0,0,1-1-1V5a1,1,0,0,1,1-1H43a1,1,0,0,1,1,1V41a1,1,0,0,1-1,1H37v2h6a3,3,0,0,0,3-3V5A3,3,0,0,0,43,2Z"/><path d="M5,40H16V38H5a1,1,0,0,1-1-1V9A1,1,0,0,1,5,8H16V6H5A3,3,0,0,0,2,9V37A3,3,0,0,0,5,40Z"/><rect x="26" y="7" width="2" height="2"/><rect x="30" y="7" width="8" height="2"/><rect x="23" y="12" width="2" height="4"/><rect x="27" y="12" width="2" height="4"/><rect x="31" y="12" width="2" height="4"/><rect x="35" y="12" width="2" height="4"/><rect x="39" y="12" width="2" height="4"/><rect x="31" y="19" width="7" height="2"/><path d="M29,37h6a3,3,0,0,0,0-6H29a3,3,0,0,0,0,6Zm0-4h6a1,1,0,0,1,0,2H29a1,1,0,0,1,0-2Z"/><rect x="13" y="10" width="3" height="2"/><rect x="6" y="15" width="2" height="3"/><rect x="10" y="15" width="2" height="3"/><rect x="14" y="15" width="2" height="3"/><rect x="9" y="10" width="2" height="2"/><path d="M10,35h6V33H10a1,1,0,0,1,0-2h6V29H10a3,3,0,0,0,0,6Z"/><path d="M59,6H48V8H59a1,1,0,0,1,1,1V37a1,1,0,0,1-1,1H48v2H59a3,3,0,0,0,3-3V9A3,3,0,0,0,59,6Z"/><rect x="48" y="10" width="7" height="2"/><rect x="56" y="15" width="2" height="3"/><rect x="52" y="15" width="2" height="3"/><rect x="48" y="15" width="2" height="3"/><path d="M48,29v2h6a1,1,0,0,1,0,2H48v2h6a3,3,0,0,0,0-6Z"/><path d="M47,61V50.107a3.084,3.084,0,0,0-2.5-3.067,3.014,3.014,0,0,0-2.439.674c-.02.016-.04.033-.059.051a2.994,2.994,0,0,0-4,0,3.116,3.116,0,0,0-3-.595V42.107a3.084,3.084,0,0,0-2.5-3.067A3,3,0,0,0,29,42V54.234l-2.654-1.592a2.745,2.745,0,0,0-2.659-.1l-.159.079a2.766,2.766,0,0,0-.37,4.724l6.261,4.471A.994.994,0,0,0,30,62H46A1,1,0,0,0,47,61Zm-2-1H30.32l-6-4.285a.767.767,0,0,1,.1-1.309l.159-.078a.76.76,0,0,1,.735.028l4.169,2.5A1,1,0,0,0,31,56V42a1,1,0,0,1,1.175-.985A1.083,1.083,0,0,1,33,42.107V50a1,1,0,0,0,2,0,1,1,0,0,1,2,0,1,1,0,0,0,2,0,1,1,0,0,1,2,0,1,1,0,0,0,2,0,1,1,0,0,1,1.175-.985A1.083,1.083,0,0,1,45,50.107Z"/><rect x="26" y="19" width="3" height="2"/><rect x="26" y="23" width="12" height="2"/><rect x="28" y="27" width="8" height="2"/><rect x="10" y="21" width="6" height="2"/><rect x="12" y="25" width="4" height="2"/><rect x="48" y="21" width="5" height="2"/><rect x="48" y="25" width="3" height="2"/><text x="0" y="79" fill="#000000" font-size="5px" font-weight="bold" font-family="'Helvetica Neue', Helvetica, Arial-Unicode, Arial, Sans-serif">Created by monkik</text><text x="0" y="84" fill="#000000" font-size="5px" font-weight="bold" font-family="'Helvetica Neue', Helvetica, Arial-Unicode, Arial, Sans-serif">from the Noun Project</text></svg>