<svg version="1.2" xmlns="http://www.w3.org/2000/svg" viewBox="0 0 2000 2000" width="2000" height="2000">
	<title>vecteezy_portfolio-icon-logo-vector-illustration-folder-symbol_9645485-ai</title>
	<style>
		.s0 { fill: #ffffff } 
		.s1 { fill: #29333f } 
	</style>
	<g id="_Artboards_">
	</g>
	<g id="Layer 1">
		<path id="&lt;Path&gt;" class="s0" d="m2000 2000h-2000v-2000h2000z"/>
		<path id="&lt;Path&gt;" class="s1" d="m104.5 1878.5l-104.5 121.5h687.3l104.5-121.5z"/>
		<g id="&lt;Group&gt;">
			<path id="&lt;Compound Path&gt;" class="s0" d="m153.4 1912.8h13.6v58.9h-13.6z"/>
			<path id="&lt;Compound Path&gt;" class="s0" d="m188.9 1969.4q-5.7-3-9-8.3-3.2-5.3-3.2-12 0-6.8 3.2-12.1 3.3-5.3 9-8.3 5.8-3 13-3 7.2 0 12.5 3 5.4 3 7.8 8.6l-10.2 5.4q-3.5-6.2-10.2-6.2-5.1 0-8.5 3.4-3.3 3.3-3.3 9.2 0 5.8 3.3 9.1 3.4 3.4 8.5 3.4 6.8 0 10.2-6.2l10.2 5.5q-2.4 5.4-7.8 8.4-5.3 3.1-12.5 3.1-7.2 0-13-3z"/>
			<path id="&lt;Compound Path&gt;" fill-rule="evenodd" class="s0" d="m237.9 1969.4q-5.7-3-8.9-8.3-3.2-5.3-3.2-12 0-6.8 3.2-12.1 3.2-5.3 8.9-8.3 5.7-3 12.9-3 7.1 0 12.8 3 5.6 3 8.8 8.3 3.2 5.3 3.2 12.1 0 6.7-3.2 12-3.2 5.3-8.8 8.3-5.7 3-12.8 3-7.2 0-12.9-3zm21.2-11.2q3.2-3.4 3.2-9.1 0-5.8-3.2-9.2-3.3-3.4-8.3-3.4-5.1 0-8.4 3.4-3.3 3.4-3.3 9.2 0 5.7 3.3 9.1 3.3 3.4 8.4 3.4 5 0 8.3-3.4z"/>
			<path id="&lt;Compound Path&gt;" class="s0" d="m325.5 1930.8q5.2 5 5.2 15v25.9h-13.2v-23.9q0-5.4-2.3-8.1-2.4-2.6-6.9-2.6-4.9 0-7.9 3.1-2.9 3-2.9 9.1v22.4h-13.1v-45.3h12.5v5.3q2.6-2.9 6.5-4.4 3.9-1.6 8.5-1.6 8.4 0 13.6 5.1z"/>
			<path id="&lt;Compound Path&gt;" class="s0" d="m423.9 1912.8l-25.5 58.9h-13.4l-25.5-58.9h14.8l17.9 42.1 18.2-42.1z"/>
			<path id="&lt;Compound Path&gt;" fill-rule="evenodd" class="s0" d="m468.6 1952.8h-34.2q0.9 4.2 4.4 6.6 3.4 2.4 8.5 2.4 3.6 0 6.3-1 2.7-1.1 5.1-3.3l7 7.5q-6.4 7.4-18.7 7.4-7.7 0-13.5-3-5.9-3-9.1-8.3-3.2-5.3-3.2-12 0-6.7 3.1-12 3.2-5.4 8.7-8.4 5.5-3 12.3-3 6.7 0 12.1 2.9 5.3 2.9 8.4 8.2 3.1 5.3 3.1 12.4 0 0.3-0.3 3.6zm-30.7-14.6q-3 2.5-3.7 6.9h22.3q-0.7-4.3-3.7-6.9-3-2.5-7.4-2.5-4.5 0-7.5 2.5z"/>
			<path id="&lt;Compound Path&gt;" class="s0" d="m486.5 1969.4q-5.7-3-9-8.3-3.2-5.3-3.2-12 0-6.8 3.2-12.1 3.3-5.3 9-8.3 5.8-3 13-3 7.2 0 12.5 3 5.4 3 7.8 8.6l-10.2 5.4q-3.5-6.2-10.1-6.2-5.2 0-8.5 3.4-3.4 3.3-3.4 9.2 0 5.8 3.4 9.1 3.3 3.4 8.5 3.4 6.7 0 10.1-6.2l10.2 5.5q-2.4 5.4-7.8 8.4-5.3 3.1-12.5 3.1-7.2 0-13-3z"/>
			<path id="&lt;Compound Path&gt;" class="s0" d="m557.3 1969.5q-1.9 1.4-4.8 2.2-2.8 0.7-5.9 0.7-8.1 0-12.5-4.2-4.4-4.1-4.4-12.1v-18.6h-7v-10.1h7v-11h13.1v11h11.3v10.1h-11.3v18.5q0 2.8 1.5 4.4 1.5 1.5 4.2 1.5 3.1 0 5.3-1.7z"/>
			<path id="&lt;Compound Path&gt;" fill-rule="evenodd" class="s0" d="m572 1969.4q-5.7-3-8.9-8.3-3.2-5.3-3.2-12 0-6.8 3.2-12.1 3.2-5.3 8.9-8.3 5.7-3 12.8-3 7.2 0 12.8 3 5.7 3 8.9 8.3 3.2 5.3 3.2 12.1 0 6.7-3.2 12-3.2 5.3-8.9 8.3-5.6 3-12.8 3-7.1 0-12.8-3zm21.1-11.2q3.3-3.4 3.3-9.1 0-5.8-3.3-9.2-3.2-3.4-8.3-3.4-5 0-8.3 3.4-3.3 3.4-3.3 9.2 0 5.7 3.3 9.1 3.3 3.4 8.3 3.4 5.1 0 8.3-3.4z"/>
			<path id="&lt;Compound Path&gt;" class="s0" d="m637.3 1927.4q4-1.7 9.2-1.7v12.2q-2.2-0.2-2.9-0.2-5.7 0-8.9 3.1-3.2 3.2-3.2 9.5v21.4h-13.1v-45.3h12.6v6q2.3-3.3 6.3-5z"/>
		</g>
	</g>
	<g id="Layer 2">
		<path id="&lt;Compound Path&gt;" fill-rule="evenodd" class="s1" d="m1514.7 1018l-84.8 454.4c-5.4 28.5-30.2 49.2-59.2 49.4q-0.1 0-0.2 0h-832.7c-20.2 0-38.1-11.2-46.9-29.2q-0.1-0.1-0.1-0.2-0.2-0.4-0.3-0.8c-3.3-6.7-5.1-14.4-5.1-22.2v-618.1c0-25.8 21-46.8 46.8-46.8h104.3v-250.8c0-7 5.7-12.7 12.8-12.7h35.8v-49.9c0-7.1 5.7-12.8 12.8-12.8h609.3c7.1 0 12.8 5.7 12.8 12.8v387.3h56.1c25.7 0 46.7 21 46.7 46.8v36h44.8c14.3 0 27.8 6.3 36.9 17.4 9.1 11 12.9 25.3 10.2 39.4zm-194.7-114.1v57.3h77.3v-36c0-11.7-9.6-21.3-21.2-21.3zm-609.4-362.9h548c7.1 0 12.8 5.7 12.8 12.7v407.5h23v-457.3h-583.8zm-48.6 420.2h301.8c-53.5-2.2-80.5-18.6-91.3-27.5-37.3 4.9-55.9-15.9-60.6-28.2q-0.4-0.9-0.6-1.8c-6.9-30.7-2.3-58.7 13.6-83 24.8-37.8 71.2-57.3 99.2-66.1-12.1-15.3-22.8-39-26.9-75.7-3.2-28 2.5-51 17.1-68.4 22.5-26.8 57.7-29.2 59.2-29.3q0.8-0.1 1.6 0c1.5 0.1 36.7 2.6 59.2 29.3 14.5 17.4 20.3 40.4 17.1 68.4-4.2 36.7-14.9 60.4-27 75.7 28 8.8 74.4 28.3 99.2 66.1 16 24.3 20.6 52.3 13.6 83q-0.2 0.9-0.5 1.8c-4.8 12.3-23.3 33.1-60.7 28.2-10.8 8.9-37.7 25.3-91.3 27.5h261.1v-394.7h-583.8zm230.8-66.2l-2.6 20c8.7 6.5 33.4 20.6 84.1 20.9 51-0.3 75.4-14.4 84-20.8l-2.6-20.1c-0.9-7 4-13.4 11-14.3 7-1 13.4 4 14.3 11l2.3 17c21 1.5 27.9-9.2 29.2-11.8 5.1-23.6 1.7-43.9-10.3-62.2-25.9-39.5-84-55.9-101-59.9-13.1 7.3-24.2 8-26.5 8.1q-0.2 0-0.4 0 0 0 0 0c0 0-0.3 0-0.4 0-2.4-0.1-13.4-0.8-26.6-8.1-16.9 4-75.2 20.6-101 60-12 18.2-15.3 38.6-10.3 62.1 1.5 2.8 8.5 13.3 29.3 11.8l2.2-17c0.9-7 7.3-12 14.4-11 6.9 0.9 11.9 7.3 10.9 14.3zm133.2-219c2.3-20.7-1.4-37.1-11.2-48.9-13.8-16.5-36-19.8-40.5-20.3-4.5 0.5-26.8 3.7-40.5 20.3-9.8 11.8-13.6 28.2-11.2 48.9 5.1 44.7 20.4 64.8 33 73.9q1.2 0.6 2.3 1.5c8.5 5.4 15.4 5.9 16.3 5.9 1.2-0.1 8.4-0.7 17.1-6.5q0.4-0.2 0.7-0.4c12.9-8.8 28.8-28.8 34-74.4zm-515.1 175.3v519.6l67.8-363.3c5.1-26.9 28.6-46.4 55.9-46.4h1.8v-131.1h-104.3c-11.7 0-21.2 9.5-21.2 21.2zm973.9 143.6c-4.3-5.2-10.6-8.1-17.3-8.1h-832.9c-15 0-28 10.7-30.7 25.5l-88.2 472.3c5 7.3 13 11.6 21.9 11.6q0 0 0.1 0h832.7c16.8 0 31.2-12 34.3-28.5l84.8-454.4c1.2-6.6-0.5-13.3-4.7-18.4z"/>
	</g>
</svg>